# xmcd
#
# Track frame offsets:
#	150
#	15087
#	30483
#	45914
#	65501
#	79919
#	97075
#	110472
#	130113
#	146739
#	169409
#
# Disc length: 2452 seconds
#
# Revision: 1
# Processed by: cddbd v1.4PL0 Copyright (c) Steve Scherf et al.
# Submitted via: CDmax 1.9
#
DISCID=8909920b
DTITLE=Tom Waits - The Heart Of Saturday Night
DYEAR=1974
DGENRE=Blues
TTITLE0=New Coat Of Paint
TTITLE1=San Diego Serenade
TTITLE2=Semi Suite
TTITLE3=Shiver My Timbers
TTITLE4=Diamonds On My Windshield
TTITLE5=The Heart Of Saturday Night
TTITLE6=Fumblin' With The Blues
TTITLE7=Please Call Me, Baby
TTITLE8=Depot, Depot
TTITLE9=Drunk On The Moon
TTITLE10=The Ghosts Of Saturday Night
EXTD=
EXTT0=
EXTT1=
EXTT2=
EXTT3=
EXTT4=
EXTT5=
EXTT6=
EXTT7=
EXTT8=
EXTT9=
EXTT10=
PLAYORDER=
